HIERARCHY
ROOT mixamorig:Hips
{
	OFFSET -0.000008 104.274872 1.554316
	CHANNELS 6 Xposition Yposition Zposition Xrotation Yrotation Zrotation
	JOINT mixamorig:Spine
	{
		OFFSET -0.000005 10.181595 0.131519
		CHANNELS 6 Xposition Yposition Zposition Xrotation Yrotation Zrotation
		JOINT mixamorig:Spine1
		{
			OFFSET -0.000000 9.893959 -1.470707
			CHANNELS 6 Xposition Yposition Zposition Xrotation Yrotation Zrotation
			JOINT mixamorig:Spine2
			{
				OFFSET -0.000000 9.220757 -1.370641
				CHANNELS 6 Xposition Yposition Zposition Xrotation Yrotation Zrotation
				JOINT mixamorig:Neck
				{
					OFFSET 0.000001 16.740417 -2.049036
					CHANNELS 6 Xposition Yposition Zposition Xrotation Yrotation Zrotation
					JOINT mixamorig:Head
					{
						OFFSET 0.000000 9.617874 1.685006
						CHANNELS 6 Xposition Yposition Zposition Xrotation Yrotation Zrotation
						JOINT mixamorig:HeadTop_End
						{
							OFFSET 0.000002 22.037354 7.501101
							CHANNELS 6 Xposition Yposition Zposition Xrotation Yrotation Zrotation
							End Site
							{
								OFFSET 0.000168 2310.654297 -282.823242
							}
						}
					}
				}
				JOINT mixamorig:RightShoulder
				{
					OFFSET -4.569970 11.014908 -2.160885
					CHANNELS 6 Xposition Yposition Zposition Xrotation Yrotation Zrotation
					JOINT mixamorig:RightArm
					{
						OFFSET -10.592851 -0.524811 -2.232101
						CHANNELS 6 Xposition Yposition Zposition Xrotation Yrotation Zrotation
						JOINT mixamorig:RightForeArm
						{
							OFFSET -27.841511 0.000031 -0.000004
							CHANNELS 6 Xposition Yposition Zposition Xrotation Yrotation Zrotation
							JOINT mixamorig:RightHand
							{
								OFFSET -28.328831 -0.000015 0.000015
								CHANNELS 6 Xposition Yposition Zposition Xrotation Yrotation Zrotation
								JOINT mixamorig:RightHandThumb1
								{
									OFFSET -2.464806 -1.573990 2.681852
									CHANNELS 6 Xposition Yposition Zposition Xrotation Yrotation Zrotation
									JOINT mixamorig:RightHandThumb2
									{
										OFFSET -3.215179 -1.872803 1.924282
										CHANNELS 6 Xposition Yposition Zposition Xrotation Yrotation Zrotation
										JOINT mixamorig:RightHandThumb3
										{
											OFFSET -2.654831 -1.527969 1.512609
											CHANNELS 6 Xposition Yposition Zposition Xrotation Yrotation Zrotation
											JOINT mixamorig:RightHandThumb4
											{
												OFFSET -2.018814 -1.152008 1.108052
												CHANNELS 6 Xposition Yposition Zposition Xrotation Yrotation Zrotation
												End Site
												{
													OFFSET -188.809540 -114.533607 132.431396
												}
											}
										}
									}
								}
								JOINT mixamorig:RightHandIndex1
								{
									OFFSET -9.108284 -0.517868 2.259835
									CHANNELS 6 Xposition Yposition Zposition Xrotation Yrotation Zrotation
									JOINT mixamorig:RightHandIndex2
									{
										OFFSET -3.699989 0.000000 0.001215
										CHANNELS 6 Xposition Yposition Zposition Xrotation Yrotation Zrotation
										JOINT mixamorig:RightHandIndex3
										{
											OFFSET -2.850006 0.000031 -0.000522
											CHANNELS 6 Xposition Yposition Zposition Xrotation Yrotation Zrotation
											JOINT mixamorig:RightHandIndex4
											{
												OFFSET -2.772186 -0.000015 -0.000020
												CHANNELS 6 Xposition Yposition Zposition Xrotation Yrotation Zrotation
												End Site
												{
													OFFSET -277.218445 0.000000 -0.050231
												}
											}
										}
									}
								}
								JOINT mixamorig:RightHandMiddle1
								{
									OFFSET -9.532516 -0.000031 -0.000023
									CHANNELS 6 Xposition Yposition Zposition Xrotation Yrotation Zrotation
									JOINT mixamorig:RightHandMiddle2
									{
										OFFSET -3.700005 -0.000015 0.003713
										CHANNELS 6 Xposition Yposition Zposition Xrotation Yrotation Zrotation
										JOINT mixamorig:RightHandMiddle3
										{
											OFFSET -2.949974 0.000015 -0.002054
											CHANNELS 6 Xposition Yposition Zposition Xrotation Yrotation Zrotation
											JOINT mixamorig:RightHandMiddle4
											{
												OFFSET -2.946640 0.000000 -0.000156
												CHANNELS 6 Xposition Yposition Zposition Xrotation Yrotation Zrotation
												End Site
												{
													OFFSET -294.664337 0.000000 -0.113670
												}
											}
										}
									}
								}
								JOINT mixamorig:RightHandRing1
								{
									OFFSET -9.103600 -0.043076 -1.865134
									CHANNELS 6 Xposition Yposition Zposition Xrotation Yrotation Zrotation
									JOINT mixamorig:RightHandRing2
									{
										OFFSET -3.379288 0.000000 -0.001055
										CHANNELS 6 Xposition Yposition Zposition Xrotation Yrotation Zrotation
										JOINT mixamorig:RightHandRing3
										{
											OFFSET -2.889687 -0.000015 0.000379
											CHANNELS 6 Xposition Yposition Zposition Xrotation Yrotation Zrotation
											JOINT mixamorig:RightHandRing4
											{
												OFFSET -2.638809 -0.000015 0.000941
												CHANNELS 6 Xposition Yposition Zposition Xrotation Yrotation Zrotation
												End Site
												{
													OFFSET -263.880371 0.000000 0.516020
												}
											}
										}
									}
								}
								JOINT mixamorig:RightHandPinky1
								{
									OFFSET -8.076683 -0.486710 -3.806280
									CHANNELS 6 Xposition Yposition Zposition Xrotation Yrotation Zrotation
									JOINT mixamorig:RightHandPinky2
									{
										OFFSET -3.600014 -0.000015 -0.003747
										CHANNELS 6 Xposition Yposition Zposition Xrotation Yrotation Zrotation
										JOINT mixamorig:RightHandPinky3
										{
											OFFSET -2.099983 0.000000 -0.005739
											CHANNELS 6 Xposition Yposition Zposition Xrotation Yrotation Zrotation
											JOINT mixamorig:RightHandPinky4
											{
												OFFSET -2.115768 -0.000031 -0.003680
												CHANNELS 6 Xposition Yposition Zposition Xrotation Yrotation Zrotation
												End Site
												{
													OFFSET -211.577087 0.000000 -0.350686
												}
											}
										}
									}
								}
							}
						}
					}
				}
				JOINT mixamorig:LeftShoulder
				{
					OFFSET 4.570447 11.014725 -2.160855
					CHANNELS 6 Xposition Yposition Zposition Xrotation Yrotation Zrotation
					JOINT mixamorig:LeftArm
					{
						OFFSET 10.592371 -0.524597 -2.232119
						CHANNELS 6 Xposition Yposition Zposition Xrotation Yrotation Zrotation
						JOINT mixamorig:LeftForeArm
						{
							OFFSET 27.841532 -0.000031 0.000026
							CHANNELS 6 Xposition Yposition Zposition Xrotation Yrotation Zrotation
							JOINT mixamorig:LeftHand
							{
								OFFSET 28.328846 -0.000061 0.000022
								CHANNELS 6 Xposition Yposition Zposition Xrotation Yrotation Zrotation
								JOINT mixamorig:LeftHandThumb1
								{
									OFFSET 2.466141 -1.576172 2.681732
									CHANNELS 6 Xposition Yposition Zposition Xrotation Yrotation Zrotation
									JOINT mixamorig:LeftHandThumb2
									{
										OFFSET 3.217812 -1.872070 1.916482
										CHANNELS 6 Xposition Yposition Zposition Xrotation Yrotation Zrotation
										JOINT mixamorig:LeftHandThumb3
										{
											OFFSET 2.656029 -1.528778 1.514513
											CHANNELS 6 Xposition Yposition Zposition Xrotation Yrotation Zrotation
											JOINT mixamorig:LeftHandThumb4
											{
												OFFSET 2.020889 -1.154053 1.115139
												CHANNELS 6 Xposition Yposition Zposition Xrotation Yrotation Zrotation
												End Site
												{
													OFFSET 190.885437 -115.081749 130.048782
												}
											}
										}
									}
								}
								JOINT mixamorig:LeftHandIndex1
								{
									OFFSET 9.109314 -0.518021 2.259871
									CHANNELS 6 Xposition Yposition Zposition Xrotation Yrotation Zrotation
									JOINT mixamorig:LeftHandIndex2
									{
										OFFSET 3.699989 0.000000 -0.000322
										CHANNELS 6 Xposition Yposition Zposition Xrotation Yrotation Zrotation
										JOINT mixamorig:LeftHandIndex3
										{
											OFFSET 2.850006 0.000000 0.000352
											CHANNELS 6 Xposition Yposition Zposition Xrotation Yrotation Zrotation
											JOINT mixamorig:LeftHandIndex4
											{
												OFFSET 2.774864 -0.000031 -0.000027
												CHANNELS 6 Xposition Yposition Zposition Xrotation Yrotation Zrotation
												End Site
												{
													OFFSET 277.486267 0.000000 -0.009857
												}
											}
										}
									}
								}
								JOINT mixamorig:LeftHandMiddle1
								{
									OFFSET 9.533394 0.000061 0.000044
									CHANNELS 6 Xposition Yposition Zposition Xrotation Yrotation Zrotation
									JOINT mixamorig:LeftHandMiddle2
									{
										OFFSET 3.699989 -0.000015 -0.000231
										CHANNELS 6 Xposition Yposition Zposition Xrotation Yrotation Zrotation
										JOINT mixamorig:LeftHandMiddle3
										{
											OFFSET 2.949997 -0.000015 -0.000059
											CHANNELS 6 Xposition Yposition Zposition Xrotation Yrotation Zrotation
											JOINT mixamorig:LeftHandMiddle4
											{
												OFFSET 2.952896 0.000031 0.000063
												CHANNELS 6 Xposition Yposition Zposition Xrotation Yrotation Zrotation
												End Site
												{
													OFFSET 295.289337 0.000000 0.022810
												}
											}
										}
									}
								}
								JOINT mixamorig:LeftHandRing1
								{
									OFFSET 9.104523 -0.042999 -1.865074
									CHANNELS 6 Xposition Yposition Zposition Xrotation Yrotation Zrotation
									JOINT mixamorig:LeftHandRing2
									{
										OFFSET 3.150009 -0.000031 0.000043
										CHANNELS 6 Xposition Yposition Zposition Xrotation Yrotation Zrotation
										JOINT mixamorig:LeftHandRing3
										{
											OFFSET 2.949982 -0.000015 0.000040
											CHANNELS 6 Xposition Yposition Zposition Xrotation Yrotation Zrotation
											JOINT mixamorig:LeftHandRing4
											{
												OFFSET 2.644348 0.000000 0.000057
												CHANNELS 6 Xposition Yposition Zposition Xrotation Yrotation Zrotation
												End Site
												{
													OFFSET 264.434631 0.000000 0.012105
												}
											}
										}
									}
								}
								JOINT mixamorig:LeftHandPinky1
								{
									OFFSET 8.077789 -0.486847 -3.806259
									CHANNELS 6 Xposition Yposition Zposition Xrotation Yrotation Zrotation
									JOINT mixamorig:LeftHandPinky2
									{
										OFFSET 3.599953 0.000031 0.014727
										CHANNELS 6 Xposition Yposition Zposition Xrotation Yrotation Zrotation
										JOINT mixamorig:LeftHandPinky3
										{
											OFFSET 2.100021 0.000015 0.007705
											CHANNELS 6 Xposition Yposition Zposition Xrotation Yrotation Zrotation
											JOINT mixamorig:LeftHandPinky4
											{
												OFFSET 2.125504 0.000031 0.007517
												CHANNELS 6 Xposition Yposition Zposition Xrotation Yrotation Zrotation
												End Site
												{
													OFFSET 212.550781 0.000000 0.625752
												}
											}
										}
									}
								}
							}
						}
					}
				}
			}
		}
	}
	JOINT mixamorig:RightUpLeg
	{
		OFFSET -8.207787 -6.751648 -1.599560
		CHANNELS 6 Xposition Yposition Zposition Xrotation Yrotation Zrotation
		JOINT mixamorig:RightLeg
		{
			OFFSET -0.000002 -44.370117 0.345942
			CHANNELS 6 Xposition Yposition Zposition Xrotation Yrotation Zrotation
			JOINT mixamorig:RightFoot
			{
				OFFSET 0.000003 -44.423679 -3.043532
				CHANNELS 6 Xposition Yposition Zposition Xrotation Yrotation Zrotation
				JOINT mixamorig:RightToeBase
				{
					OFFSET -0.000002 -8.728671 10.710558
					CHANNELS 6 Xposition Yposition Zposition Xrotation Yrotation Zrotation
					JOINT mixamorig:RightToe_End
					{
						OFFSET -0.000001 -0.000679 9.278119
						CHANNELS 6 Xposition Yposition Zposition Xrotation Yrotation Zrotation
						End Site
						{
							OFFSET 0.000000 -0.067690 927.812134
						}
					}
				}
			}
		}
	}
	JOINT mixamorig:LeftUpLeg
	{
		OFFSET 8.207793 -6.751686 -1.599556
		CHANNELS 6 Xposition Yposition Zposition Xrotation Yrotation Zrotation
		JOINT mixamorig:LeftLeg
		{
			OFFSET -0.000004 -44.370014 0.346954
			CHANNELS 6 Xposition Yposition Zposition Xrotation Yrotation Zrotation
			JOINT mixamorig:LeftFoot
			{
				OFFSET -0.000001 -44.423672 -3.044401
				CHANNELS 6 Xposition Yposition Zposition Xrotation Yrotation Zrotation
				JOINT mixamorig:LeftToeBase
				{
					OFFSET -0.000002 -8.728669 10.710558
					CHANNELS 6 Xposition Yposition Zposition Xrotation Yrotation Zrotation
					JOINT mixamorig:LeftToe_End
					{
						OFFSET -0.000003 -0.000679 9.278133
						CHANNELS 6 Xposition Yposition Zposition Xrotation Yrotation Zrotation
						End Site
						{
							OFFSET 0.000000 -0.068021 927.813477
						}
					}
				}
			}
		}
	}
}
MOTION
Frames: 3
Frame Time: 0.033333
0.000006 104.270477 1.554256 0.000010 0.000003 -0.000113 -0.000005 10.181587 0.131522 0.000001 -0.000003 0.000084 -0.000000 9.893967 -1.470711 0.000001 0.000000 -0.000000 -0.000000 9.220802 -1.370642 0.000000 -0.000000 -0.000000 0.000001 16.740433 -2.049030 0.000000 -0.000000 -0.000000 0.000000 9.617859 1.685014 0.000000 0.000000 0.000000 0.000002 22.037384 7.501101 0.000000 -0.000000 0.000000 -4.569968 11.014880 -2.160881 0.000008 0.000001 -0.000038 -10.592818 -0.524833 -2.231777 80.530239 53.311163 -46.068670 -27.841406 0.000002 0.000623 10.568256 115.791473 -16.771598 -28.328836 0.000006 0.000027 -0.000324 -0.000046 0.000007 -2.464561 -1.574235 2.682126 81.350674 -136.010486 135.933100 -3.214852 -1.873000 1.924640 216.101680 -47.885773 276.147608 -2.654485 -1.528169 1.513065 195.955559 -46.327056 254.475500 -2.018842 -1.152017 1.108054 0.000001 -0.000003 0.000002 -9.108052 -0.517756 2.260430 187.630337 13.398991 -239.275351 -3.699694 0.000180 0.001798 185.062077 10.488517 -231.325639 -2.849816 0.000241 0.000067 187.273446 7.051822 88.223013 -2.772152 0.000003 -0.000017 -0.000002 0.000001 0.000002 -9.532276 -0.000085 0.000555 178.482938 9.851600 -164.020709 -3.699752 -0.000052 0.004286 178.516488 5.454326 212.413351 -2.949725 0.000047 -0.001488 180.624011 5.330587 166.770297 -2.946629 -0.000011 -0.000159 -0.000001 0.000000 -0.000001 -9.103405 -0.043121 -1.864555 177.192155 8.469233 -142.791429 -3.378997 0.000217 -0.000481 181.428061 1.524977 93.721848 -2.889664 0.000243 0.000949 186.228728 1.674000 30.567873 -2.638816 -0.000012 0.000939 0.000002 -0.000000 -0.000003 -8.076533 -0.486757 -3.805705 174.837816 8.764424 -117.216428 -3.599999 0.000079 -0.003191 182.226715 0.220870 -5.523772 -2.099985 0.000029 -0.005168 189.493845 -1.238600 -17.571642 -2.115765 -0.000058 -0.003676 -0.000003 0.000002 -0.000005 4.570446 11.014691 -2.160851 -0.000018 0.000010 -0.000021 10.592535 -0.524532 -2.232391 74.649289 -67.877867 54.326194 27.841711 -0.000077 -0.000077 240.251822 -67.696764 261.735171 28.328836 -0.000044 0.000018 0.000020 -0.000089 0.000001 2.466158 -1.576159 2.681842 137.815035 169.084666 -169.070978 3.217827 -1.872000 1.916552 287.522332 34.130312 26.371956 2.656013 -1.528805 1.514596 -106.294669 48.142213 53.433588 2.020892 -1.154087 1.115141 0.000002 0.000004 -0.000001 9.109280 -0.517774 2.260096 -112.990761 -8.406891 -12.657692 3.699953 0.000238 -0.000086 244.420833 -7.963126 347.372028 2.849977 0.000287 0.000583 241.754928 -5.206449 -8.694750 2.774887 -0.000046 -0.000035 0.000001 -0.000001 0.000000 9.533374 0.000303 0.000270 -116.970869 -6.607496 -10.746521 3.699970 0.000291 0.000002 241.125267 -6.499320 -10.980939 2.949972 0.000256 0.000164 240.247615 -5.325455 -9.168879 2.952872 -0.000046 0.000061 0.000001 -0.000000 0.000001 9.104516 -0.042758 -1.864844 -115.934757 -3.926429 -6.274172 3.149992 0.000293 0.000273 244.177678 -5.331221 -8.495107 2.949951 0.000257 0.000305 245.527132 -5.666854 -8.797419 2.644318 0.000031 0.000055 0.000001 0.000000 -0.000000 8.077773 -0.486624 -3.806018 -113.289377 -2.690417 -4.758854 3.599965 0.000266 0.014958 248.518974 0.301106 -0.177895 2.100011 0.000252 0.007944 246.919098 1.273688 1.302887 2.125509 -0.000000 0.007521 -0.000002 0.000001 0.000001 -8.207786 -6.751667 -1.599560 -0.077001 -0.000003 0.000080 -0.000002 -44.370110 0.345938 0.153719 -0.000000 -0.000000 0.000000 -44.423679 -3.043532 -0.076700 0.000000 -0.000002 -0.000006 -8.728667 10.710559 -0.000009 -0.000000 -0.000000 -0.000001 -0.000679 9.278123 0.000000 -0.000000 -0.000000 8.207792 -6.751710 -1.599556 -0.074518 -0.000003 0.000081 -0.000002 -44.370014 0.346960 0.148822 0.000002 0.000000 -0.000001 -44.423664 -3.044403 -0.074314 0.000000 -0.000002 -0.000004 -8.728671 10.710558 0.000007 -0.000000 -0.000000 0.000000 -0.000680 9.278137 -0.000000 0.000000 -0.000001 
0.000006 104.270477 1.554256 0.000010 0.000003 -0.000113 -0.000005 10.181587 0.131522 0.000001 -0.000003 0.000084 -0.000000 9.893967 -1.470711 0.000001 0.000000 -0.000000 -0.000000 9.220802 -1.370642 0.000000 -0.000000 -0.000000 0.000001 16.740433 -2.049030 0.000000 -0.000000 -0.000000 0.000000 9.617859 1.685014 0.000000 0.000000 0.000000 0.000002 22.037384 7.501101 0.000000 -0.000000 0.000000 -4.569968 11.014880 -2.160881 0.000008 0.000001 -0.000038 -10.592833 -0.524818 -2.231801 75.637870 50.866082 -40.520227 -27.841423 0.000009 0.000627 2.337672 113.725641 -3.580264 -28.328829 0.000007 0.000026 -0.000318 -0.000043 0.000004 -2.464479 -1.574167 2.682239 36.623372 -125.640128 94.361973 -3.214713 -1.872779 1.924735 154.855511 -37.208330 205.527086 -2.654613 -1.527651 1.512991 126.591109 11.907382 116.867405 -2.018833 -1.151983 1.108059 -0.000003 -0.000002 -0.000001 -9.108346 -0.517789 2.260370 157.866968 13.320230 -61.903480 -3.700038 0.000131 0.001765 152.771811 10.468860 -401.341752 -2.850082 0.000229 -0.000041 150.851722 7.313310 -27.615367 -2.772166 -0.000012 -0.000028 -0.000001 0.000004 0.000001 -9.532570 0.000106 0.000486 151.577375 10.281320 -39.667089 -3.700027 0.000235 0.004181 145.881830 6.667366 338.805059 -2.950033 0.000264 -0.001590 140.711049 6.408620 342.192423 -2.946628 -0.000005 -0.000154 -0.000002 -0.000000 0.000001 -9.103658 -0.042871 -1.864629 150.774910 8.344276 -31.098442 -3.379314 0.000241 -0.000537 151.107075 3.347921 -13.008453 -2.889740 0.000257 0.000891 151.761558 3.815569 -15.268949 -2.638804 0.000001 0.000936 -0.000001 0.000003 -0.000002 -8.076717 -0.486496 -3.805769 147.359228 7.537971 -24.873865 -3.600004 0.000209 -0.003256 153.189095 1.333853 -4.228765 -2.100002 0.000201 -0.005245 156.332703 0.752280 -2.607400 -2.115772 -0.000067 -0.003672 -0.000001 0.000000 -0.000002 4.570446 11.014691 -2.160851 -0.000018 0.000010 -0.000021 10.592538 -0.524541 -2.232392 73.278368 -68.350092 53.584306 27.841705 -0.000091 -0.000061 241.660152 -66.472446 264.654367 28.328833 -0.000029 0.000010 0.000018 -0.000089 -0.000001 2.466147 -1.576172 2.681818 140.298246 160.295661 -170.554919 3.217824 -1.871994 1.916528 288.610354 33.634085 25.687752 2.656019 -1.528801 1.514604 -110.231159 46.758693 55.734969 2.020899 -1.154053 1.115135 0.000001 0.000001 0.000002 9.109273 -0.517746 2.260074 -122.127689 -8.506306 -15.307989 3.699932 0.000307 -0.000113 227.597558 -9.209381 339.277353 2.849972 0.000364 0.000516 212.773930 -3.084549 -10.459272 2.774886 -0.000046 -0.000026 -0.000001 -0.000000 0.000000 9.533372 0.000310 0.000250 -119.821203 -5.344970 -9.200369 3.699982 0.000276 -0.000019 234.131672 -3.573328 -6.982754 2.950011 0.000295 0.000130 223.926946 -0.906157 -2.252665 2.952873 -0.000010 0.000050 0.000002 -0.000001 -0.000000 9.104528 -0.042767 -1.864851 -115.643476 -0.978181 -1.557050 3.150034 0.000256 0.000244 243.798138 4.717571 7.569946 2.950012 0.000243 0.000226 242.640421 4.690443 7.698345 2.644324 0.000031 0.000064 0.000002 0.000001 -0.000003 8.077804 -0.486625 -3.806034 -112.200651 3.350470 4.246357 3.600013 0.000238 0.014923 252.690143 12.818981 16.678651 2.100049 0.000180 0.007894 252.920402 13.843148 18.000806 2.125503 0.000002 0.007517 -0.000000 0.000000 0.000000 -8.207786 -6.751667 -1.599560 -0.077001 -0.000003 0.000080 -0.000002 -44.370110 0.345938 0.153719 -0.000000 -0.000000 0.000000 -44.423679 -3.043532 -0.076700 0.000000 -0.000002 -0.000006 -8.728667 10.710559 -0.000009 -0.000000 -0.000000 -0.000001 -0.000679 9.278123 0.000000 -0.000000 -0.000000 8.207792 -6.751710 -1.599556 -0.074518 -0.000003 0.000081 -0.000002 -44.370014 0.346960 0.148822 0.000002 0.000000 -0.000001 -44.423664 -3.044403 -0.074314 0.000000 -0.000002 -0.000004 -8.728671 10.710558 0.000007 -0.000000 -0.000000 0.000000 -0.000680 9.278137 -0.000000 0.000000 -0.000001 
0.000006 104.270477 1.554256 0.000010 0.000003 -0.000113 -0.000005 10.181587 0.131522 0.000001 -0.000003 0.000084 -0.000000 9.893967 -1.470711 0.000001 0.000000 -0.000000 -0.000000 9.220802 -1.370642 0.000000 -0.000000 -0.000000 0.000001 16.740433 -2.049030 0.000000 -0.000000 -0.000000 0.000000 9.617859 1.685014 0.000000 0.000000 0.000000 0.000002 22.037384 7.501101 0.000000 -0.000000 0.000000 -4.569968 11.014880 -2.160881 0.000008 0.000001 -0.000038 -10.592836 -0.524812 -2.231804 72.936148 50.798053 -38.675502 -27.841452 0.000012 0.000605 -8.867627 110.759604 12.816590 -28.328821 0.000008 0.000019 -0.000325 -0.000041 0.000007 -2.464411 -1.574052 2.682310 -4.772264 -131.295210 52.226369 -3.214810 -1.872476 1.924658 125.956789 -0.349954 139.300383 -2.654973 -1.527792 1.513012 153.808374 32.140118 8.534030 -2.018842 -1.151987 1.108055 0.000000 -0.000003 0.000002 -9.108358 -0.517641 2.260304 136.558650 14.893622 -36.446692 -3.700056 0.000233 0.001653 129.894571 11.475358 -384.213058 -2.850066 0.000345 -0.000121 126.876037 8.160991 -16.240363 -2.772161 -0.000002 -0.000018 -0.000003 0.000001 -0.000001 -9.532571 0.000246 0.000402 128.767644 11.566603 -24.142688 -3.700055 0.000340 0.004092 123.717839 5.780616 349.380514 -2.950046 0.000338 -0.001707 119.295524 5.678871 350.328599 -2.946630 0.000012 -0.000159 -0.000004 0.000003 -0.000001 -9.103668 -0.042747 -1.864722 127.814382 10.066874 -20.304826 -3.379293 0.000340 -0.000656 126.012250 2.390979 -4.722847 -2.889724 0.000343 0.000749 124.320808 2.395545 -4.615467 -2.638813 -0.000008 0.000944 0.000001 -0.000003 0.000002 -8.076718 -0.486390 -3.805863 125.447475 8.991848 -17.070340 -3.599991 0.000292 -0.003378 128.201394 1.003440 -1.410851 -2.099981 0.000319 -0.005342 128.322384 0.265169 -0.131423 -2.115783 -0.000020 -0.003680 -0.000003 0.000001 -0.000000 4.570446 11.014691 -2.160851 -0.000018 0.000010 -0.000021 10.592539 -0.524548 -2.232388 71.947546 -70.122431 53.988489 27.841711 -0.000061 -0.000084 244.654070 -69.905361 264.313650 28.328838 -0.000012 0.000017 0.000023 -0.000088 0.000001 2.466145 -1.576174 2.681836 141.386473 164.969108 -170.631185 3.217828 -1.871980 1.916553 289.555898 29.938901 24.505575 2.656016 -1.528803 1.514608 -122.364355 46.839132 65.325773 2.020894 -1.154063 1.115135 0.000004 0.000003 0.000004 9.109261 -0.517720 2.260077 -131.658153 -8.263645 -18.270167 3.699890 -0.000030 -0.000239 177.860325 -20.582217 168.339957 2.850101 0.000242 0.000240 115.970820 -15.691385 24.855758 2.774884 -0.000022 -0.000040 -0.000000 -0.000001 0.000004 9.533379 0.000355 0.000275 -125.972553 -3.770352 -7.374942 3.700122 0.000181 -0.000196 168.679048 -7.048025 63.680313 2.950034 0.000231 -0.000215 99.897882 -1.889858 2.251107 2.952870 -0.000045 0.000063 0.000003 -0.000001 0.000001 9.104529 -0.042747 -1.864855 -120.936450 -0.247564 -0.439791 3.149744 0.000277 -0.000134 123.342356 44.793644 -74.791869 2.949924 0.000194 -0.000172 72.726126 18.734744 -13.849540 2.644302 0.000046 0.000056 0.000000 0.000000 0.000000 8.077796 -0.486640 -3.806037 -113.108745 3.645860 4.762704 3.599781 0.000043 0.014611 254.372364 103.339355 117.790738 2.099892 0.000150 0.007509 426.677000 39.167955 -26.319646 2.125500 -0.000002 0.007517 0.000001 -0.000001 -0.000002 -8.207786 -6.751667 -1.599560 -0.077001 -0.000003 0.000080 -0.000002 -44.370110 0.345938 0.153719 -0.000000 -0.000000 0.000000 -44.423679 -3.043532 -0.076700 0.000000 -0.000002 -0.000006 -8.728667 10.710559 -0.000009 -0.000000 -0.000000 -0.000001 -0.000679 9.278123 0.000000 -0.000000 -0.000000 8.207792 -6.751710 -1.599556 -0.074518 -0.000003 0.000081 -0.000002 -44.370014 0.346960 0.148822 0.000002 0.000000 -0.000001 -44.423664 -3.044403 -0.074314 0.000000 -0.000002 -0.000004 -8.728671 10.710558 0.000007 -0.000000 -0.000000 0.000000 -0.000680 9.278137 -0.000000 0.000000 -0.000001 
